<svg xmlns="http://www.w3.org/2000/svg" width="1200" height="630" viewBox="0 0 1200 630">
  <defs>
    <linearGradient id="bg" x1="0" y1="0" x2="1" y2="1">
      <stop offset="0" stop-color="#4f46e5"/>
      <stop offset="0.55" stop-color="#6366f1"/>
      <stop offset="1" stop-color="#8b5cf6"/>
    </linearGradient>
    <linearGradient id="tile" x1="0" y1="0" x2="1" y2="1">
      <stop offset="0" stop-color="#ffffff" stop-opacity="0.22"/>
      <stop offset="1" stop-color="#ffffff" stop-opacity="0.08"/>
    </linearGradient>
  </defs>

  <rect width="1200" height="630" fill="url(#bg)"/>

  <!-- soft glow decor -->
  <circle cx="1060" cy="110" r="280" fill="#ffffff" opacity="0.07"/>
  <circle cx="120" cy="560" r="220" fill="#ffffff" opacity="0.06"/>

  <!-- centered group: icon + wordmark -->
  <!-- icon tile (220x220) -->
  <rect x="175" y="205" width="220" height="220" rx="48" fill="url(#tile)" stroke="#ffffff" stroke-opacity="0.55" stroke-width="3"/>
  <g transform="translate(175,205) scale(3.44)" fill="none" stroke="#ffffff" stroke-width="3" stroke-linecap="round" stroke-linejoin="round">
    <path d="M32 19c-4-3-9-4-14-4-1 0-2 .8-2 2v25c0 1.2 1 2 2.2 1.9 4.6-.4 9.6.6 13.8 3.6"/>
    <path d="M32 19c4-3 9-4 14-4 1 0 2 .8 2 2v25c0 1.2-1 2-2.2 1.9-4.6-.4-9.6.6-13.8 3.6"/>
    <path d="M32 19v28.5"/>
  </g>

  <!-- wordmark, vertically centered with the tile -->
  <text x="438" y="347" font-family="'Segoe UI', Arial, sans-serif" font-size="112" font-weight="800" fill="#ffffff" letter-spacing="-2">EstudoFlow</text>
</svg>
